<svg xmlns="http://www.w3.org/2000/svg" viewBox="0 0 900 600" width="900" height="600">
  <defs>
    <linearGradient id="purpleGrad" x1="0%" y1="0%" x2="100%" y2="100%">
      <stop offset="0%" style="stop-color:#9333ea"/>
      <stop offset="100%" style="stop-color:#a855f7"/>
    </linearGradient>
    <linearGradient id="greenGrad" x1="0%" y1="0%" x2="100%" y2="100%">
      <stop offset="0%" style="stop-color:#10b981"/>
      <stop offset="100%" style="stop-color:#34d399"/>
    </linearGradient>
  </defs>

  <!-- Background -->
  <rect width="900" height="600" fill="white"/>

  <!-- Title -->
  <text x="450" y="45" font-family="Inter, Arial, sans-serif" font-size="28" font-weight="700" fill="#191919" text-anchor="middle">Competitive Advantage</text>
  <text x="450" y="70" font-family="Inter, Arial, sans-serif" font-size="14" fill="#71717a" text-anchor="middle">GOGO vs Major Players - Feature Comparison</text>

  <!-- Table Header Background -->
  <rect x="50" y="100" width="800" height="50" rx="12" fill="url(#purpleGrad)"/>

  <!-- Header Labels -->
  <text x="150" y="132" font-family="Inter, Arial, sans-serif" font-size="14" fill="white" text-anchor="middle" font-weight="600">Feature</text>
  <text x="330" y="132" font-family="Inter, Arial, sans-serif" font-size="14" fill="white" text-anchor="middle" font-weight="600">GOGO</text>
  <text x="480" y="132" font-family="Inter, Arial, sans-serif" font-size="14" fill="white" text-anchor="middle" font-weight="600">Grab</text>
  <text x="620" y="132" font-family="Inter, Arial, sans-serif" font-size="14" fill="white" text-anchor="middle" font-weight="600">Angkas</text>
  <text x="760" y="132" font-family="Inter, Arial, sans-serif" font-size="14" fill="white" text-anchor="middle" font-weight="600">FoodPanda</text>

  <!-- Row backgrounds -->
  <rect x="50" y="155" width="800" height="45" fill="#faf5ff"/>
  <rect x="50" y="200" width="800" height="45" fill="white"/>
  <rect x="50" y="245" width="800" height="45" fill="#faf5ff"/>
  <rect x="50" y="290" width="800" height="45" fill="white"/>
  <rect x="50" y="335" width="800" height="45" fill="#faf5ff"/>
  <rect x="50" y="380" width="800" height="45" fill="white"/>
  <rect x="50" y="425" width="800" height="45" fill="#faf5ff"/>
  <rect x="50" y="470" width="800" height="45" fill="white"/>

  <!-- Check mark and X symbols -->
  <!-- Row 1: Ride-hailing -->
  <text x="150" y="183" font-family="Inter, Arial, sans-serif" font-size="13" fill="#191919" text-anchor="middle">Ride-hailing</text>
  <circle cx="330" cy="178" r="12" fill="url(#greenGrad)"/><text x="330" y="183" font-family="Inter, Arial, sans-serif" font-size="14" fill="white" text-anchor="middle">✓</text>
  <circle cx="480" cy="178" r="12" fill="url(#greenGrad)"/><text x="480" y="183" font-family="Inter, Arial, sans-serif" font-size="14" fill="white" text-anchor="middle">✓</text>
  <circle cx="620" cy="178" r="12" fill="url(#greenGrad)"/><text x="620" y="183" font-family="Inter, Arial, sans-serif" font-size="14" fill="white" text-anchor="middle">✓</text>
  <circle cx="760" cy="178" r="12" fill="#ef4444"/><text x="760" y="183" font-family="Inter, Arial, sans-serif" font-size="14" fill="white" text-anchor="middle">✗</text>

  <!-- Row 2: Food Delivery -->
  <text x="150" y="228" font-family="Inter, Arial, sans-serif" font-size="13" fill="#191919" text-anchor="middle">Food Delivery</text>
  <circle cx="330" cy="223" r="12" fill="url(#greenGrad)"/><text x="330" y="228" font-family="Inter, Arial, sans-serif" font-size="14" fill="white" text-anchor="middle">✓</text>
  <circle cx="480" cy="223" r="12" fill="url(#greenGrad)"/><text x="480" y="228" font-family="Inter, Arial, sans-serif" font-size="14" fill="white" text-anchor="middle">✓</text>
  <circle cx="620" cy="223" r="12" fill="#ef4444"/><text x="620" y="228" font-family="Inter, Arial, sans-serif" font-size="14" fill="white" text-anchor="middle">✗</text>
  <circle cx="760" cy="223" r="12" fill="url(#greenGrad)"/><text x="760" y="228" font-family="Inter, Arial, sans-serif" font-size="14" fill="white" text-anchor="middle">✓</text>

  <!-- Row 3: Grocery -->
  <text x="150" y="273" font-family="Inter, Arial, sans-serif" font-size="13" fill="#191919" text-anchor="middle">Grocery Delivery</text>
  <circle cx="330" cy="268" r="12" fill="url(#greenGrad)"/><text x="330" y="273" font-family="Inter, Arial, sans-serif" font-size="14" fill="white" text-anchor="middle">✓</text>
  <circle cx="480" cy="268" r="12" fill="url(#greenGrad)"/><text x="480" y="273" font-family="Inter, Arial, sans-serif" font-size="14" fill="white" text-anchor="middle">✓</text>
  <circle cx="620" cy="268" r="12" fill="#ef4444"/><text x="620" y="273" font-family="Inter, Arial, sans-serif" font-size="14" fill="white" text-anchor="middle">✗</text>
  <circle cx="760" cy="268" r="12" fill="#fbbf24"/><text x="760" y="273" font-family="Inter, Arial, sans-serif" font-size="12" fill="white" text-anchor="middle">~</text>

  <!-- Row 4: Pharmacy -->
  <text x="150" y="318" font-family="Inter, Arial, sans-serif" font-size="13" fill="#191919" text-anchor="middle">Pharmacy</text>
  <circle cx="330" cy="313" r="12" fill="url(#greenGrad)"/><text x="330" y="318" font-family="Inter, Arial, sans-serif" font-size="14" fill="white" text-anchor="middle">✓</text>
  <circle cx="480" cy="313" r="12" fill="#fbbf24"/><text x="480" y="318" font-family="Inter, Arial, sans-serif" font-size="12" fill="white" text-anchor="middle">~</text>
  <circle cx="620" cy="313" r="12" fill="#ef4444"/><text x="620" y="318" font-family="Inter, Arial, sans-serif" font-size="14" fill="white" text-anchor="middle">✗</text>
  <circle cx="760" cy="313" r="12" fill="#ef4444"/><text x="760" y="318" font-family="Inter, Arial, sans-serif" font-size="14" fill="white" text-anchor="middle">✗</text>

  <!-- Row 5: GCash/Maya -->
  <text x="150" y="363" font-family="Inter, Arial, sans-serif" font-size="13" fill="#191919" text-anchor="middle">GCash/Maya Pay</text>
  <circle cx="330" cy="358" r="12" fill="url(#greenGrad)"/><text x="330" y="363" font-family="Inter, Arial, sans-serif" font-size="14" fill="white" text-anchor="middle">✓</text>
  <circle cx="480" cy="358" r="12" fill="url(#greenGrad)"/><text x="480" y="363" font-family="Inter, Arial, sans-serif" font-size="14" fill="white" text-anchor="middle">✓</text>
  <circle cx="620" cy="358" r="12" fill="url(#greenGrad)"/><text x="620" y="363" font-family="Inter, Arial, sans-serif" font-size="14" fill="white" text-anchor="middle">✓</text>
  <circle cx="760" cy="358" r="12" fill="url(#greenGrad)"/><text x="760" y="363" font-family="Inter, Arial, sans-serif" font-size="14" fill="white" text-anchor="middle">✓</text>

  <!-- Row 6: In-app Wallet -->
  <text x="150" y="408" font-family="Inter, Arial, sans-serif" font-size="13" fill="#191919" text-anchor="middle">In-app Wallet</text>
  <circle cx="330" cy="403" r="12" fill="url(#greenGrad)"/><text x="330" y="408" font-family="Inter, Arial, sans-serif" font-size="14" fill="white" text-anchor="middle">✓</text>
  <circle cx="480" cy="403" r="12" fill="url(#greenGrad)"/><text x="480" y="408" font-family="Inter, Arial, sans-serif" font-size="14" fill="white" text-anchor="middle">✓</text>
  <circle cx="620" cy="403" r="12" fill="#ef4444"/><text x="620" y="408" font-family="Inter, Arial, sans-serif" font-size="14" fill="white" text-anchor="middle">✗</text>
  <circle cx="760" cy="403" r="12" fill="#ef4444"/><text x="760" y="408" font-family="Inter, Arial, sans-serif" font-size="14" fill="white" text-anchor="middle">✗</text>

  <!-- Row 7: Cotabato Focus -->
  <text x="150" y="453" font-family="Inter, Arial, sans-serif" font-size="13" fill="#191919" text-anchor="middle">Cotabato City Focus</text>
  <circle cx="330" cy="448" r="12" fill="url(#greenGrad)"/><text x="330" y="453" font-family="Inter, Arial, sans-serif" font-size="14" fill="white" text-anchor="middle">✓</text>
  <circle cx="480" cy="448" r="12" fill="#fbbf24"/><text x="480" y="453" font-family="Inter, Arial, sans-serif" font-size="12" fill="white" text-anchor="middle">~</text>
  <circle cx="620" cy="448" r="12" fill="#ef4444"/><text x="620" y="453" font-family="Inter, Arial, sans-serif" font-size="14" fill="white" text-anchor="middle">✗</text>
  <circle cx="760" cy="448" r="12" fill="#ef4444"/><text x="760" y="453" font-family="Inter, Arial, sans-serif" font-size="14" fill="white" text-anchor="middle">✗</text>

  <!-- Row 8: Local Support -->
  <text x="150" y="498" font-family="Inter, Arial, sans-serif" font-size="13" fill="#191919" text-anchor="middle">Local Support Team</text>
  <circle cx="330" cy="493" r="12" fill="url(#greenGrad)"/><text x="330" y="498" font-family="Inter, Arial, sans-serif" font-size="14" fill="white" text-anchor="middle">✓</text>
  <circle cx="480" cy="493" r="12" fill="#fbbf24"/><text x="480" y="498" font-family="Inter, Arial, sans-serif" font-size="12" fill="white" text-anchor="middle">~</text>
  <circle cx="620" cy="493" r="12" fill="#fbbf24"/><text x="620" y="498" font-family="Inter, Arial, sans-serif" font-size="12" fill="white" text-anchor="middle">~</text>
  <circle cx="760" cy="493" r="12" fill="#fbbf24"/><text x="760" y="498" font-family="Inter, Arial, sans-serif" font-size="12" fill="white" text-anchor="middle">~</text>

  <!-- GOGO highlight column -->
  <rect x="270" y="155" width="120" height="360" fill="none" stroke="#9333ea" stroke-width="3" rx="8" stroke-dasharray="8,4"/>

  <!-- Legend -->
  <g transform="translate(50, 540)">
    <circle cx="10" cy="10" r="8" fill="url(#greenGrad)"/>
    <text x="25" y="15" font-family="Inter, Arial, sans-serif" font-size="11" fill="#71717a">Full Feature</text>

    <circle cx="130" cy="10" r="8" fill="#fbbf24"/>
    <text x="145" y="15" font-family="Inter, Arial, sans-serif" font-size="11" fill="#71717a">Limited</text>

    <circle cx="230" cy="10" r="8" fill="#ef4444"/>
    <text x="245" y="15" font-family="Inter, Arial, sans-serif" font-size="11" fill="#71717a">Not Available</text>
  </g>

  <!-- Key Advantage callout -->
  <rect x="550" y="530" width="300" height="50" rx="12" fill="url(#purpleGrad)"/>
  <text x="700" y="555" font-family="Inter, Arial, sans-serif" font-size="13" fill="white" text-anchor="middle" font-weight="600">GOGO: Only all-in-one for Cotabato</text>
  <text x="700" y="572" font-family="Inter, Arial, sans-serif" font-size="11" fill="white" text-anchor="middle" opacity="0.9">Local focus + Complete features</text>
</svg>